<?xml version="1.0" encoding="utf-8"?>
<!-- Generator: Adobe Illustrator 26.0.1, SVG Export Plug-In . SVG Version: 6.00 Build 0)  -->
<svg version="1.1" id="Capa_1" xmlns="http://www.w3.org/2000/svg" xmlns:xlink="http://www.w3.org/1999/xlink" x="0px" y="0px"
	 viewBox="0 0 57 57" style="enable-background:new 0 0 57 57;" xml:space="preserve">
<style type="text/css">
	.st0{fill:#FFFFFF;}
</style>
<path class="st0" d="M57,12H41.7c0.8-1.2,1.3-2.5,1.3-4c0-1.9-0.7-3.6-2-4.9c-2.7-2.7-7.2-2.7-9.9,0l-2.8,2.8L25.4,3
	c-2.7-2.7-7.2-2.7-9.9,0c-1.3,1.3-2,3.1-2,4.9c0,1.5,0.4,2.8,1.3,4H0v14h5v30h48V26h4V12z M32.5,4.5c2-1.9,5.1-1.9,7.1,0
	C40.5,5.4,41,6.7,41,8c0,1.3-0.5,2.6-1.5,3.5L39.1,12H24.9l4.7-4.7l0,0L32.5,4.5z M16.9,11.5C16,10.6,15.5,9.3,15.5,8
	c0-1.3,0.5-2.6,1.5-3.5c2-1.9,5.1-1.9,7.1,0l2.8,2.8l-3.5,3.5c-0.2,0.2-0.4,0.4-0.6,0.7c-0.1,0.1-0.1,0.2-0.2,0.2
	c-0.1,0.1-0.1,0.2-0.2,0.3h-5L16.9,11.5z M2,24V14h14.6h4.7h2.3H28v10H5H2z M28,26v12H7V26C7,26,28,26,28,26z M7,40h21v14H7V40z
	 M30,54V40h21v14H30z M51,38H30V26h21V38z M55,24h-2H30V14h9.9H55V24z"/>
</svg>
